<svg xmlns="http://www.w3.org/2000/svg" viewBox="0 0 400 400" fill="none">
  <!-- 背景圆形 -->
  <circle cx="200" cy="200" r="190" fill="#f8fafc" stroke="#e2e8f0" stroke-width="2"/>
  
  <!-- 书本 -->
  <g transform="translate(120, 160)">
    <!-- 书本底部 -->
    <rect x="0" y="40" width="80" height="60" rx="4" fill="#3b82f6"/>
    <rect x="5" y="35" width="80" height="60" rx="4" fill="#60a5fa"/>
    <rect x="10" y="30" width="80" height="60" rx="4" fill="#93c5fd"/>
    
    <!-- 书本装饰线 -->
    <line x1="15" y1="45" x2="85" y2="45" stroke="white" stroke-width="2" opacity="0.7"/>
    <line x1="15" y1="55" x2="75" y2="55" stroke="white" stroke-width="1" opacity="0.5"/>
    <line x1="15" y1="65" x2="80" y2="65" stroke="white" stroke-width="1" opacity="0.5"/>
  </g>
  
  <!-- 苹果 -->
  <g transform="translate(240, 120)">
    <!-- 苹果主体 -->
    <path d="M40 30 C60 20, 80 30, 80 60 C80 90, 60 110, 40 110 C20 110, 0 90, 0 60 C0 30, 20 20, 40 30 Z" fill="#ef4444"/>
    
    <!-- 苹果高光 -->
    <ellipse cx="25" cy="50" rx="8" ry="15" fill="#fca5a5" opacity="0.6"/>
    
    <!-- 苹果叶子 -->
    <path d="M35 25 C35 20, 40 15, 45 20 C50 25, 45 30, 40 25 Z" fill="#22c55e"/>
    
    <!-- 苹果茎 -->
    <rect x="38" y="20" width="4" height="8" rx="2" fill="#92400e"/>
  </g>
  
  <!-- 装饰元素 -->
  <g opacity="0.3">
    <!-- 星星 -->
    <path d="M80 100 L85 110 L95 110 L87 118 L90 128 L80 122 L70 128 L73 118 L65 110 L75 110 Z" fill="#fbbf24"/>
    <path d="M320 280 L323 286 L329 286 L324 290 L326 296 L320 293 L314 296 L316 290 L311 286 L317 286 Z" fill="#fbbf24"/>
    
    <!-- 小圆点 -->
    <circle cx="100" cy="300" r="3" fill="#8b5cf6"/>
    <circle cx="300" cy="120" r="4" fill="#06b6d4"/>
    <circle cx="350" cy="200" r="2" fill="#f59e0b"/>
  </g>
</svg>